<?xml version="1.0" encoding="UTF-8"?>
<svg width="30px" height="34px" viewBox="0 0 30 34" version="1.1" xmlns="http://www.w3.org/2000/svg" xmlns:xlink="http://www.w3.org/1999/xlink">
    <!-- Generator: Sketch 54.1 (76490) - https://sketchapp.com -->
    <title>Shape</title>
    <desc>Created with Sketch.</desc>
    <g id="FINAL" stroke="none" stroke-width="1" fill="none" fill-rule="evenodd">
        <g id="Checkout-V2--Desktop-01" transform="translate(-208.000000, -972.000000)" fill="#1D6C93" fill-rule="nonzero">
            <g id="01---delivery-details" transform="translate(149.000000, 225.000000)">
                <g id="01.2---choose-delivery-day" transform="translate(46.000000, 605.000000)">
                    <g id="Group-3">
                        <g id="change-date" transform="translate(0.000000, 112.000000)">
                            <g id="icon---calendar" transform="translate(0.000000, 21.000000)">
                                <path d="M39.7857143,13.25 L36.5714286,13.25 L36.5714286,9.796875 C36.5714286,9.35680078 36.2116295,9 35.7678571,9 L35.2321429,9 C34.7883705,9 34.4285714,9.35680078 34.4285714,9.796875 L34.4285714,13.25 L21.5714286,13.25 L21.5714286,9.796875 C21.5714286,9.35680078 21.2116295,9 20.7678571,9 L20.2321429,9 C19.7883705,9 19.4285714,9.35680078 19.4285714,9.796875 L19.4285714,13.25 L16.2142857,13.25 C14.4390625,13.25 13,14.6770703 13,16.4375 L13,39.8125 C13,41.5729297 14.4390625,43 16.2142857,43 L39.7857143,43 C41.5609375,43 43,41.5729297 43,39.8125 L43,16.4375 C43,14.6770703 41.5609375,13.25 39.7857143,13.25 Z M16.2142857,15.375 L39.7857143,15.375 C40.3764732,15.375 40.8571429,15.8516641 40.8571429,16.4375 L40.8571429,19.625 L15.1428571,19.625 L15.1428571,16.4375 C15.1428571,15.8516641 15.6235268,15.375 16.2142857,15.375 Z M39.7857143,40.875 L16.2142857,40.875 C15.6235268,40.875 15.1428571,40.3983359 15.1428571,39.8125 L15.1428571,21.75 L40.8571429,21.75 L40.8571429,39.8125 C40.8571429,40.3983359 40.3764732,40.875 39.7857143,40.875 Z" id="Shape"></path>
                            </g>
                        </g>
                    </g>
                </g>
            </g>
        </g>
    </g>
</svg>