<?xml version="1.0" encoding="UTF-8"?>
<svg width="25px" height="19px" viewBox="0 0 25 19" version="1.1" xmlns="http://www.w3.org/2000/svg" xmlns:xlink="http://www.w3.org/1999/xlink">
    <!-- Generator: Sketch 54.1 (76490) - https://sketchapp.com -->
    <title>van icon</title>
    <desc>Created with Sketch.</desc>
    <g id="FINAL" stroke="none" stroke-width="1" fill="none" fill-rule="evenodd">
        <g id="Checkout-V2--Desktop-01" transform="translate(-212.000000, -900.000000)" fill-rule="nonzero">
            <g id="01---delivery-details" transform="translate(149.000000, 225.000000)">
                <g id="01.2---choose-delivery-day" transform="translate(46.000000, 605.000000)">
                    <g id="Group-3">
                        <g id="delivery-free" transform="translate(6.000000, 61.000000)">
                            <g id="van-icon" transform="translate(11.000000, 9.000000)">
                                <g id="icon---checkmark" transform="translate(3.027778, 2.230769)" fill="#50B83C">
                                    <g id="check-copy" transform="translate(0.933333, 2.230769)">
                                        <path d="M2.717155,5.8821602 L0.117152458,3.2672085 C-0.0390508194,3.11010711 -0.0390508194,2.85538504 0.117152458,2.69826793 L0.682824886,2.12932736 C0.839028163,1.97221025 1.09230966,1.97221025 1.24851294,2.12932736 L2.99999902,3.8908682 L6.75148706,0.117826046 C6.90769034,-0.0392753488 7.16097184,-0.0392753488 7.31717511,0.117826046 L7.88284754,0.68676662 C8.03905082,0.843868015 8.03905082,1.09859008 7.88284754,1.25570719 L3.28284305,5.88217592 C3.12662415,6.03927731 2.87335827,6.03927731 2.717155,5.8821602 L2.717155,5.8821602 Z" id="Path"></path>
                                    </g>
                                </g>
                                <g id="icon---truck" fill="#1D6C93">
                                    <path d="M24.6875,13.9333333 L23.75,13.9333333 L23.75,9.654375 C23.75,8.989375 23.484375,8.33625 23.015625,7.86520833 L19.7382813,4.54416667 C19.2773438,4.06916667 18.6328125,3.8 17.9726563,3.8 L16.25,3.8 L16.25,1.84458333 C16.25,0.827291667 15.3828125,0 14.3203125,0 L1.9296875,0 C0.8671875,2.812565e-16 0,0.827291667 0,1.84458333 L0,13.3554167 C0,14.3727083 0.8671875,15.2 1.9296875,15.2 L2.5625,15.2 C2.51953125,15.4058333 2.5,15.615625 2.5,15.8333333 C2.5,17.5829167 3.8984375,19 5.625,19 C7.3515625,19 8.75,17.5829167 8.75,15.8333333 C8.75,15.615625 8.7265625,15.4058333 8.6875,15.2 L16.3125,15.2 C16.2695312,15.4058333 16.25,15.615625 16.25,15.8333333 C16.25,17.5829167 17.6484375,19 19.375,19 C21.1015625,19 22.5,17.5829167 22.5,15.8333333 C22.5,15.615625 22.4765625,15.4058333 22.4375,15.2 L24.6875,15.2 C24.859375,15.2 25,15.0575 25,14.8833333 L25,14.25 C25,14.0758333 24.859375,13.9333333 24.6875,13.9333333 Z M17.9726563,5.06666667 C18.3007813,5.06666667 18.625,5.20125 18.8554688,5.43875 L22.1328125,8.75979167 C22.1640625,8.79145833 22.1757813,8.835 22.203125,8.870625 L16.25,8.870625 L16.25,5.070625 L17.9726563,5.070625 L17.9726563,5.06666667 Z M5.625,17.7333333 C4.58984375,17.7333333 3.75,16.8822917 3.75,15.8333333 C3.75,14.784375 4.58984375,13.9333333 5.625,13.9333333 C6.66015625,13.9333333 7.5,14.784375 7.5,15.8333333 C7.5,16.8822917 6.66015625,17.7333333 5.625,17.7333333 Z M8.109375,13.9333333 C7.5390625,13.169375 6.640625,12.6666667 5.625,12.6666667 C4.609375,12.6666667 3.7109375,13.169375 3.140625,13.9333333 L1.9296875,13.9333333 C1.5546875,13.9333333 1.25,13.6760417 1.25,13.3554167 L1.25,1.84458333 C1.25,1.52395833 1.5546875,1.26666667 1.9296875,1.26666667 L14.3203125,1.26666667 C14.6953125,1.26666667 15,1.52395833 15,1.84458333 L15,13.9333333 L8.109375,13.9333333 Z M19.375,17.7333333 C18.3398438,17.7333333 17.5,16.8822917 17.5,15.8333333 C17.5,14.784375 18.3398438,13.9333333 19.375,13.9333333 C20.4101563,13.9333333 21.25,14.784375 21.25,15.8333333 C21.25,16.8822917 20.4101563,17.7333333 19.375,17.7333333 Z M19.375,12.6666667 C18.3554688,12.6666667 17.4609375,13.169375 16.890625,13.9333333 L16.25,13.9333333 L16.25,10.1333333 L22.5,10.1333333 L22.5,13.9333333 L21.859375,13.9333333 C21.2890625,13.169375 20.3945313,12.6666667 19.375,12.6666667 Z" id="Shape"></path>
                                </g>
                            </g>
                        </g>
                    </g>
                </g>
            </g>
        </g>
    </g>
</svg>